<mxfile host="app.diagrams.net" agent="Mozilla/5.0 (Windows NT 10.0; Win64; x64) AppleWebKit/537.36 (KHTML, like Gecko) Chrome/128.0.0.0 Safari/537.36 OPR/114.0.0.0" version="24.8.6">
  <diagram name="Страница — 1" id="EpvtO59fIXJsKv5Davyu">
    <mxGraphModel dx="1394" dy="563" grid="1" gridSize="10" guides="1" tooltips="1" connect="1" arrows="1" fold="1" page="1" pageScale="1" pageWidth="827" pageHeight="1169" math="0" shadow="0">
      <root>
        <mxCell id="0" />
        <mxCell id="1" parent="0" />
        <mxCell id="XhIPNTt0wWVxAHa0QcW--1" value="Администратор" style="shape=umlActor;verticalLabelPosition=bottom;verticalAlign=top;html=1;outlineConnect=0;fontSize=11;fontFamily=Times New Roman;" parent="1" vertex="1">
          <mxGeometry x="180" y="120" width="30" height="60" as="geometry" />
        </mxCell>
        <mxCell id="XhIPNTt0wWVxAHa0QcW--3" value="&lt;font style=&quot;font-size: 11px;&quot;&gt;&lt;span style=&quot;text-align: left; font-size: 11px;&quot;&gt;добавить информацию в каталог&lt;/span&gt;&lt;/font&gt;" style="ellipse;whiteSpace=wrap;html=1;fontSize=11;fontFamily=Times New Roman;" parent="1" vertex="1">
          <mxGeometry x="600" y="20" width="100" height="53" as="geometry" />
        </mxCell>
        <mxCell id="XhIPNTt0wWVxAHa0QcW--4" value="" style="endArrow=none;html=1;rounded=0;labelBackgroundColor=none;fontColor=default;endFill=0;fontSize=11;fontFamily=Times New Roman;" parent="1" source="XhIPNTt0wWVxAHa0QcW--1" edge="1">
          <mxGeometry width="50" height="50" relative="1" as="geometry">
            <mxPoint x="340" y="210" as="sourcePoint" />
            <mxPoint x="370" y="110" as="targetPoint" />
          </mxGeometry>
        </mxCell>
        <mxCell id="XhIPNTt0wWVxAHa0QcW--8" value="&lt;span style=&quot;font-size: 11px; line-height: 115%;&quot;&gt;удалить&lt;br style=&quot;font-size: 11px;&quot;&gt;&lt;/span&gt;&lt;span style=&quot;background-color: initial; font-size: 11px;&quot;&gt;информацию в каталоге&lt;/span&gt;" style="ellipse;whiteSpace=wrap;html=1;fontSize=11;fontFamily=Times New Roman;" parent="1" vertex="1">
          <mxGeometry x="610" y="80" width="80" height="50" as="geometry" />
        </mxCell>
        <mxCell id="XhIPNTt0wWVxAHa0QcW--9" value="&lt;span style=&quot;font-size: 11px; line-height: 115%;&quot;&gt;редактировать информацию о технике&lt;/span&gt;" style="ellipse;whiteSpace=wrap;html=1;fontSize=11;fontFamily=Times New Roman;" parent="1" vertex="1">
          <mxGeometry x="639.99" y="130" width="96.62" height="50" as="geometry" />
        </mxCell>
        <mxCell id="XhIPNTt0wWVxAHa0QcW--12" value="&lt;div style=&quot;font-size: 11px;&quot;&gt;действия с заказом&lt;/div&gt;" style="ellipse;whiteSpace=wrap;html=1;fontSize=11;fontFamily=Times New Roman;" parent="1" vertex="1">
          <mxGeometry x="380.01" y="170" width="99.99" height="40" as="geometry" />
        </mxCell>
        <mxCell id="XhIPNTt0wWVxAHa0QcW--17" value="" style="endArrow=classicThin;html=1;rounded=0;labelBackgroundColor=none;fontColor=default;endFill=0;fontSize=11;fontFamily=Times New Roman;" parent="1" source="XhIPNTt0wWVxAHa0QcW--19" target="XhIPNTt0wWVxAHa0QcW--1" edge="1">
          <mxGeometry width="50" height="50" relative="1" as="geometry">
            <mxPoint x="195" y="360" as="sourcePoint" />
            <mxPoint x="369" y="381" as="targetPoint" />
          </mxGeometry>
        </mxCell>
        <mxCell id="XhIPNTt0wWVxAHa0QcW--19" value="Гость" style="shape=umlActor;verticalLabelPosition=bottom;verticalAlign=top;html=1;outlineConnect=0;fontSize=11;fontFamily=Times New Roman;" parent="1" vertex="1">
          <mxGeometry x="180" y="490" width="30" height="60" as="geometry" />
        </mxCell>
        <mxCell id="XhIPNTt0wWVxAHa0QcW--22" value="&lt;span style=&quot;line-height: 115%; font-size: 11px;&quot;&gt;просмотр сайта&lt;/span&gt;" style="ellipse;whiteSpace=wrap;html=1;fontSize=11;fontFamily=Times New Roman;" parent="1" vertex="1">
          <mxGeometry x="330" y="460" width="99.99" height="40" as="geometry" />
        </mxCell>
        <mxCell id="XhIPNTt0wWVxAHa0QcW--23" value="" style="endArrow=none;html=1;rounded=0;entryX=0;entryY=0.5;entryDx=0;entryDy=0;labelBackgroundColor=none;fontColor=default;endFill=0;fontSize=11;fontFamily=Times New Roman;" parent="1" source="XhIPNTt0wWVxAHa0QcW--19" target="XhIPNTt0wWVxAHa0QcW--22" edge="1">
          <mxGeometry width="50" height="50" relative="1" as="geometry">
            <mxPoint x="220" y="164" as="sourcePoint" />
            <mxPoint x="415" y="223" as="targetPoint" />
          </mxGeometry>
        </mxCell>
        <mxCell id="XhIPNTt0wWVxAHa0QcW--25" value="" style="endArrow=none;html=1;rounded=0;labelBackgroundColor=none;fontColor=default;endFill=0;entryX=0;entryY=0.5;entryDx=0;entryDy=0;fontSize=11;fontFamily=Times New Roman;" parent="1" source="XhIPNTt0wWVxAHa0QcW--19" target="XhIPNTt0wWVxAHa0QcW--27" edge="1">
          <mxGeometry width="50" height="50" relative="1" as="geometry">
            <mxPoint x="220" y="396" as="sourcePoint" />
            <mxPoint x="340" y="380" as="targetPoint" />
          </mxGeometry>
        </mxCell>
        <mxCell id="XhIPNTt0wWVxAHa0QcW--27" value="&lt;font style=&quot;font-size: 11px;&quot;&gt;оформление заказа&lt;/font&gt;" style="ellipse;whiteSpace=wrap;html=1;fontSize=11;fontFamily=Times New Roman;" parent="1" vertex="1">
          <mxGeometry x="344.01" y="510" width="99.99" height="40" as="geometry" />
        </mxCell>
        <mxCell id="oiaGo1_i9GOHVBW_bYwL-2" value="&lt;div style=&quot;font-size: 11px;&quot;&gt;&lt;span style=&quot;line-height: 115%; font-size: 11px;&quot;&gt;&lt;font style=&quot;font-size: 11px;&quot;&gt;модерация&lt;br style=&quot;font-size: 11px;&quot;&gt;отзывов&lt;/font&gt;&lt;/span&gt;&lt;br style=&quot;font-size: 11px;&quot;&gt;&lt;/div&gt;" style="ellipse;whiteSpace=wrap;html=1;fontSize=11;fontFamily=Times New Roman;" parent="1" vertex="1">
          <mxGeometry x="389.98999999999995" y="261.25" width="99.99" height="40" as="geometry" />
        </mxCell>
        <mxCell id="oiaGo1_i9GOHVBW_bYwL-3" value="" style="endArrow=none;html=1;rounded=0;entryX=0;entryY=0.5;entryDx=0;entryDy=0;labelBackgroundColor=none;fontColor=default;endFill=0;fontSize=11;fontFamily=Times New Roman;" parent="1" source="XhIPNTt0wWVxAHa0QcW--1" target="oiaGo1_i9GOHVBW_bYwL-2" edge="1">
          <mxGeometry width="50" height="50" relative="1" as="geometry">
            <mxPoint x="220" y="164" as="sourcePoint" />
            <mxPoint x="415" y="223" as="targetPoint" />
          </mxGeometry>
        </mxCell>
        <mxCell id="oiaGo1_i9GOHVBW_bYwL-8" value="&lt;p style=&quot;margin: 0cm; text-align: justify; line-height: 18pt; font-size: 11px;&quot; class=&quot;MsoListParagraph&quot;&gt;&lt;span style=&quot;font-size: 11px;&quot;&gt;просмотр отзывов&lt;/span&gt;&lt;/p&gt;" style="ellipse;whiteSpace=wrap;html=1;fontSize=11;fontFamily=Times New Roman;" parent="1" vertex="1">
          <mxGeometry x="350.01" y="570" width="99.99" height="40" as="geometry" />
        </mxCell>
        <mxCell id="oiaGo1_i9GOHVBW_bYwL-9" value="&lt;p style=&quot;margin: 0cm; line-height: 18pt; font-size: 11px;&quot; class=&quot;MsoListParagraph&quot;&gt;&lt;span style=&quot;line-height: 115%; font-size: 11px;&quot;&gt;сортировка&lt;br style=&quot;font-size: 11px;&quot;&gt;товаров в каталоге&lt;/span&gt;&lt;br style=&quot;font-size: 11px;&quot;&gt;&lt;/p&gt;" style="ellipse;whiteSpace=wrap;html=1;fontSize=11;fontFamily=Times New Roman;" parent="1" vertex="1">
          <mxGeometry x="344.01" y="640" width="100.01" height="40" as="geometry" />
        </mxCell>
        <mxCell id="oiaGo1_i9GOHVBW_bYwL-11" value="" style="endArrow=none;html=1;rounded=0;labelBackgroundColor=none;fontColor=default;endFill=0;entryX=0;entryY=0.5;entryDx=0;entryDy=0;fontSize=11;fontFamily=Times New Roman;" parent="1" source="XhIPNTt0wWVxAHa0QcW--19" target="oiaGo1_i9GOHVBW_bYwL-8" edge="1">
          <mxGeometry width="50" height="50" relative="1" as="geometry">
            <mxPoint x="220" y="403" as="sourcePoint" />
            <mxPoint x="490" y="450" as="targetPoint" />
          </mxGeometry>
        </mxCell>
        <mxCell id="oiaGo1_i9GOHVBW_bYwL-15" value="" style="endArrow=none;html=1;rounded=0;labelBackgroundColor=none;fontColor=default;endFill=0;entryX=0;entryY=0;entryDx=0;entryDy=0;fontSize=11;fontFamily=Times New Roman;" parent="1" source="XhIPNTt0wWVxAHa0QcW--19" target="oiaGo1_i9GOHVBW_bYwL-9" edge="1">
          <mxGeometry width="50" height="50" relative="1" as="geometry">
            <mxPoint x="220" y="412" as="sourcePoint" />
            <mxPoint x="400" y="550" as="targetPoint" />
          </mxGeometry>
        </mxCell>
        <mxCell id="oiaGo1_i9GOHVBW_bYwL-19" value="работа с каталогом" style="ellipse;whiteSpace=wrap;html=1;fontSize=11;fontFamily=Times New Roman;" parent="1" vertex="1">
          <mxGeometry x="369.99" y="90" width="99.99" height="40" as="geometry" />
        </mxCell>
        <mxCell id="oiaGo1_i9GOHVBW_bYwL-20" value="" style="endArrow=open;dashed=1;html=1;rounded=0;entryX=0;entryY=0.5;entryDx=0;entryDy=0;exitX=1;exitY=0.5;exitDx=0;exitDy=0;endFill=0;fontSize=11;fontFamily=Times New Roman;" parent="1" source="oiaGo1_i9GOHVBW_bYwL-19" target="XhIPNTt0wWVxAHa0QcW--3" edge="1">
          <mxGeometry width="50" height="50" relative="1" as="geometry">
            <mxPoint x="480" y="170" as="sourcePoint" />
            <mxPoint x="530" y="120" as="targetPoint" />
          </mxGeometry>
        </mxCell>
        <mxCell id="oiaGo1_i9GOHVBW_bYwL-22" value="&amp;lt;&amp;lt;include&amp;gt;&amp;gt;" style="edgeLabel;html=1;align=center;verticalAlign=middle;resizable=0;points=[];rotation=-25;fontSize=11;fontFamily=Times New Roman;" parent="oiaGo1_i9GOHVBW_bYwL-20" vertex="1" connectable="0">
          <mxGeometry x="0.115" y="2" relative="1" as="geometry">
            <mxPoint x="-11" y="-6" as="offset" />
          </mxGeometry>
        </mxCell>
        <mxCell id="oiaGo1_i9GOHVBW_bYwL-23" value="" style="endArrow=open;dashed=1;html=1;rounded=0;entryX=0;entryY=0.5;entryDx=0;entryDy=0;exitX=1;exitY=0.5;exitDx=0;exitDy=0;endFill=0;fontSize=11;fontFamily=Times New Roman;" parent="1" source="oiaGo1_i9GOHVBW_bYwL-19" target="XhIPNTt0wWVxAHa0QcW--8" edge="1">
          <mxGeometry width="50" height="50" relative="1" as="geometry">
            <mxPoint x="480" y="120" as="sourcePoint" />
            <mxPoint x="610" y="57" as="targetPoint" />
          </mxGeometry>
        </mxCell>
        <mxCell id="oiaGo1_i9GOHVBW_bYwL-24" value="&amp;lt;&amp;lt;include&amp;gt;&amp;gt;" style="edgeLabel;html=1;align=center;verticalAlign=middle;resizable=0;points=[];rotation=0;fontSize=11;fontFamily=Times New Roman;" parent="oiaGo1_i9GOHVBW_bYwL-23" vertex="1" connectable="0">
          <mxGeometry x="0.115" y="2" relative="1" as="geometry">
            <mxPoint x="-4" y="-7" as="offset" />
          </mxGeometry>
        </mxCell>
        <mxCell id="oiaGo1_i9GOHVBW_bYwL-25" value="" style="endArrow=none;dashed=1;html=1;rounded=0;entryX=1;entryY=0.5;entryDx=0;entryDy=0;endFill=0;exitX=0;exitY=0.5;exitDx=0;exitDy=0;startArrow=open;startFill=0;fontSize=11;fontFamily=Times New Roman;" parent="1" source="XhIPNTt0wWVxAHa0QcW--9" target="oiaGo1_i9GOHVBW_bYwL-19" edge="1">
          <mxGeometry width="50" height="50" relative="1" as="geometry">
            <mxPoint x="590" y="180" as="sourcePoint" />
            <mxPoint x="620" y="115" as="targetPoint" />
          </mxGeometry>
        </mxCell>
        <mxCell id="oiaGo1_i9GOHVBW_bYwL-26" value="&amp;lt;&amp;lt;include&amp;gt;&amp;gt;" style="edgeLabel;html=1;align=center;verticalAlign=middle;resizable=0;points=[];rotation=15;fontSize=11;fontFamily=Times New Roman;" parent="oiaGo1_i9GOHVBW_bYwL-25" vertex="1" connectable="0">
          <mxGeometry x="0.115" y="2" relative="1" as="geometry">
            <mxPoint x="22" y="-4" as="offset" />
          </mxGeometry>
        </mxCell>
        <mxCell id="oiaGo1_i9GOHVBW_bYwL-28" value="" style="endArrow=none;html=1;rounded=0;entryX=0;entryY=0.5;entryDx=0;entryDy=0;labelBackgroundColor=none;fontColor=default;endFill=0;fontSize=11;fontFamily=Times New Roman;" parent="1" source="XhIPNTt0wWVxAHa0QcW--1" target="XhIPNTt0wWVxAHa0QcW--12" edge="1">
          <mxGeometry width="50" height="50" relative="1" as="geometry">
            <mxPoint x="220" y="170" as="sourcePoint" />
            <mxPoint x="322" y="240" as="targetPoint" />
          </mxGeometry>
        </mxCell>
        <mxCell id="oiaGo1_i9GOHVBW_bYwL-32" value="&lt;font style=&quot;font-size: 11px;&quot;&gt;&lt;span style=&quot;text-align: left; font-size: 11px;&quot;&gt;принять заказ&lt;/span&gt;&lt;/font&gt;" style="ellipse;whiteSpace=wrap;html=1;fontSize=11;fontFamily=Times New Roman;" parent="1" vertex="1">
          <mxGeometry x="556.01" y="170.5" width="100" height="53" as="geometry" />
        </mxCell>
        <mxCell id="oiaGo1_i9GOHVBW_bYwL-33" value="&lt;font style=&quot;font-size: 11px;&quot;&gt;&lt;span style=&quot;text-align: left; font-size: 11px;&quot;&gt;отклонить заказ&lt;/span&gt;&lt;/font&gt;" style="ellipse;whiteSpace=wrap;html=1;fontSize=11;fontFamily=Times New Roman;" parent="1" vertex="1">
          <mxGeometry x="564.02" y="237" width="100" height="53" as="geometry" />
        </mxCell>
        <mxCell id="oiaGo1_i9GOHVBW_bYwL-34" value="" style="endArrow=open;dashed=1;html=1;rounded=0;entryX=0;entryY=0.5;entryDx=0;entryDy=0;exitX=1;exitY=0.5;exitDx=0;exitDy=0;endFill=0;fontSize=11;fontFamily=Times New Roman;" parent="1" target="oiaGo1_i9GOHVBW_bYwL-32" edge="1">
          <mxGeometry width="50" height="50" relative="1" as="geometry">
            <mxPoint x="479.99999999999886" y="197" as="sourcePoint" />
            <mxPoint x="390.01" y="207.5" as="targetPoint" />
          </mxGeometry>
        </mxCell>
        <mxCell id="oiaGo1_i9GOHVBW_bYwL-35" value="&amp;lt;&amp;lt;include&amp;gt;&amp;gt;" style="edgeLabel;html=1;align=center;verticalAlign=middle;resizable=0;points=[];rotation=0;fontSize=11;fontFamily=Times New Roman;" parent="oiaGo1_i9GOHVBW_bYwL-34" vertex="1" connectable="0">
          <mxGeometry x="0.115" y="2" relative="1" as="geometry">
            <mxPoint x="-3" y="-10" as="offset" />
          </mxGeometry>
        </mxCell>
        <mxCell id="oiaGo1_i9GOHVBW_bYwL-36" value="" style="endArrow=open;dashed=1;html=1;rounded=0;entryX=0.095;entryY=0.146;entryDx=0;entryDy=0;exitX=1;exitY=0.5;exitDx=0;exitDy=0;endFill=0;entryPerimeter=0;fontSize=11;fontFamily=Times New Roman;" parent="1" target="oiaGo1_i9GOHVBW_bYwL-33" edge="1">
          <mxGeometry width="50" height="50" relative="1" as="geometry">
            <mxPoint x="479.99999999999886" y="197" as="sourcePoint" />
            <mxPoint x="566.01" y="207.5" as="targetPoint" />
          </mxGeometry>
        </mxCell>
        <mxCell id="oiaGo1_i9GOHVBW_bYwL-37" value="&amp;lt;&amp;lt;include&amp;gt;&amp;gt;" style="edgeLabel;html=1;align=center;verticalAlign=middle;resizable=0;points=[];rotation=27;fontSize=11;fontFamily=Times New Roman;" parent="oiaGo1_i9GOHVBW_bYwL-36" vertex="1" connectable="0">
          <mxGeometry x="0.115" y="2" relative="1" as="geometry">
            <mxPoint x="16" y="-3" as="offset" />
          </mxGeometry>
        </mxCell>
        <mxCell id="oiaGo1_i9GOHVBW_bYwL-39" value="&lt;div style=&quot;font-size: 11px;&quot;&gt;&lt;font style=&quot;font-size: 11px;&quot;&gt;опубликовать отзыв&lt;/font&gt;&lt;/div&gt;" style="ellipse;whiteSpace=wrap;html=1;fontSize=11;fontFamily=Times New Roman;" parent="1" vertex="1">
          <mxGeometry x="564.03" y="290" width="99.99" height="40" as="geometry" />
        </mxCell>
        <mxCell id="oiaGo1_i9GOHVBW_bYwL-40" value="&lt;div style=&quot;font-size: 11px;&quot;&gt;&lt;font style=&quot;font-size: 11px;&quot;&gt;удалить отзыв&lt;/font&gt;&lt;/div&gt;" style="ellipse;whiteSpace=wrap;html=1;fontSize=11;fontFamily=Times New Roman;" parent="1" vertex="1">
          <mxGeometry x="564.03" y="350" width="99.99" height="40" as="geometry" />
        </mxCell>
        <mxCell id="oiaGo1_i9GOHVBW_bYwL-41" value="" style="endArrow=open;dashed=1;html=1;rounded=0;entryX=0;entryY=0.5;entryDx=0;entryDy=0;exitX=1;exitY=0.5;exitDx=0;exitDy=0;endFill=0;fontSize=11;fontFamily=Times New Roman;" parent="1" source="oiaGo1_i9GOHVBW_bYwL-2" target="oiaGo1_i9GOHVBW_bYwL-39" edge="1">
          <mxGeometry width="50" height="50" relative="1" as="geometry">
            <mxPoint x="464.02" y="220" as="sourcePoint" />
            <mxPoint x="558.02" y="254" as="targetPoint" />
          </mxGeometry>
        </mxCell>
        <mxCell id="oiaGo1_i9GOHVBW_bYwL-42" value="&amp;lt;&amp;lt;include&amp;gt;&amp;gt;" style="edgeLabel;html=1;align=center;verticalAlign=middle;resizable=0;points=[];rotation=22;fontSize=11;fontFamily=Times New Roman;" parent="oiaGo1_i9GOHVBW_bYwL-41" vertex="1" connectable="0">
          <mxGeometry x="0.115" y="2" relative="1" as="geometry">
            <mxPoint x="-3" y="-10" as="offset" />
          </mxGeometry>
        </mxCell>
        <mxCell id="oiaGo1_i9GOHVBW_bYwL-43" value="" style="endArrow=open;dashed=1;html=1;rounded=0;entryX=0;entryY=0.5;entryDx=0;entryDy=0;exitX=1;exitY=0.5;exitDx=0;exitDy=0;endFill=0;fontSize=11;fontFamily=Times New Roman;" parent="1" source="oiaGo1_i9GOHVBW_bYwL-2" target="oiaGo1_i9GOHVBW_bYwL-40" edge="1">
          <mxGeometry width="50" height="50" relative="1" as="geometry">
            <mxPoint x="524" y="280" as="sourcePoint" />
            <mxPoint x="600" y="300" as="targetPoint" />
          </mxGeometry>
        </mxCell>
        <mxCell id="oiaGo1_i9GOHVBW_bYwL-44" value="&amp;lt;&amp;lt;include&amp;gt;&amp;gt;" style="edgeLabel;html=1;align=center;verticalAlign=middle;resizable=0;points=[];rotation=49;fontSize=11;fontFamily=Times New Roman;" parent="oiaGo1_i9GOHVBW_bYwL-43" vertex="1" connectable="0">
          <mxGeometry x="0.115" y="2" relative="1" as="geometry">
            <mxPoint x="12" y="1" as="offset" />
          </mxGeometry>
        </mxCell>
        <mxCell id="oiaGo1_i9GOHVBW_bYwL-56" value="&lt;p style=&quot;margin: 0cm; text-align: justify; line-height: 18pt; font-size: 11px;&quot; class=&quot;MsoListParagraph&quot;&gt;&lt;font style=&quot;font-size: 11px;&quot;&gt;написание отзыва&lt;/font&gt;&lt;/p&gt;" style="ellipse;whiteSpace=wrap;html=1;fontSize=11;fontFamily=Times New Roman;" parent="1" vertex="1">
          <mxGeometry x="560" y="620" width="99.99" height="40" as="geometry" />
        </mxCell>
        <mxCell id="oiaGo1_i9GOHVBW_bYwL-59" value="" style="endArrow=none;dashed=1;html=1;rounded=0;exitX=1;exitY=0.5;exitDx=0;exitDy=0;endFill=0;startArrow=open;startFill=0;fontSize=11;fontFamily=Times New Roman;" parent="1" source="oiaGo1_i9GOHVBW_bYwL-8" edge="1">
          <mxGeometry width="50" height="50" relative="1" as="geometry">
            <mxPoint x="529" y="554" as="sourcePoint" />
            <mxPoint x="560" y="640" as="targetPoint" />
          </mxGeometry>
        </mxCell>
        <mxCell id="oiaGo1_i9GOHVBW_bYwL-60" value="&amp;lt;&amp;lt;extend&amp;gt;&amp;gt;" style="edgeLabel;html=1;align=center;verticalAlign=middle;resizable=0;points=[];rotation=24;fontSize=11;fontFamily=Times New Roman;" parent="oiaGo1_i9GOHVBW_bYwL-59" vertex="1" connectable="0">
          <mxGeometry x="0.115" y="2" relative="1" as="geometry">
            <mxPoint x="8" y="-6" as="offset" />
          </mxGeometry>
        </mxCell>
        <mxCell id="oiaGo1_i9GOHVBW_bYwL-61" value="&lt;font style=&quot;font-size: 11px;&quot;&gt;ввод имени&lt;/font&gt;" style="ellipse;whiteSpace=wrap;html=1;fontSize=11;fontFamily=Times New Roman;" parent="1" vertex="1">
          <mxGeometry x="540" y="470" width="99.99" height="40" as="geometry" />
        </mxCell>
        <mxCell id="oiaGo1_i9GOHVBW_bYwL-62" value="&lt;font style=&quot;font-size: 11px;&quot;&gt;ввод города&lt;/font&gt;" style="ellipse;whiteSpace=wrap;html=1;fontSize=11;fontFamily=Times New Roman;" parent="1" vertex="1">
          <mxGeometry x="540" y="520" width="99.99" height="40" as="geometry" />
        </mxCell>
        <mxCell id="oiaGo1_i9GOHVBW_bYwL-65" value="&lt;font style=&quot;font-size: 11px;&quot;&gt;ввод номера телефона&lt;/font&gt;" style="ellipse;whiteSpace=wrap;html=1;fontSize=11;fontFamily=Times New Roman;" parent="1" vertex="1">
          <mxGeometry x="540" y="565" width="99.99" height="40" as="geometry" />
        </mxCell>
        <mxCell id="oiaGo1_i9GOHVBW_bYwL-67" value="" style="endArrow=open;dashed=1;html=1;rounded=0;exitX=1;exitY=0.5;exitDx=0;exitDy=0;endFill=0;entryX=0;entryY=0.5;entryDx=0;entryDy=0;fontSize=11;fontFamily=Times New Roman;" parent="1" source="XhIPNTt0wWVxAHa0QcW--27" target="oiaGo1_i9GOHVBW_bYwL-65" edge="1">
          <mxGeometry width="50" height="50" relative="1" as="geometry">
            <mxPoint x="460" y="600" as="sourcePoint" />
            <mxPoint x="570" y="650" as="targetPoint" />
          </mxGeometry>
        </mxCell>
        <mxCell id="oiaGo1_i9GOHVBW_bYwL-68" value="&amp;lt;&amp;lt;include&amp;gt;&amp;gt;" style="edgeLabel;html=1;align=center;verticalAlign=middle;resizable=0;points=[];rotation=30;fontSize=11;fontFamily=Times New Roman;" parent="oiaGo1_i9GOHVBW_bYwL-67" vertex="1" connectable="0">
          <mxGeometry x="0.115" y="2" relative="1" as="geometry">
            <mxPoint x="8" y="-4" as="offset" />
          </mxGeometry>
        </mxCell>
        <mxCell id="oiaGo1_i9GOHVBW_bYwL-69" value="" style="endArrow=open;dashed=1;html=1;rounded=0;exitX=1;exitY=0.5;exitDx=0;exitDy=0;endFill=0;entryX=0;entryY=0.5;entryDx=0;entryDy=0;fontSize=11;fontFamily=Times New Roman;" parent="1" source="XhIPNTt0wWVxAHa0QcW--27" target="oiaGo1_i9GOHVBW_bYwL-62" edge="1">
          <mxGeometry width="50" height="50" relative="1" as="geometry">
            <mxPoint x="454" y="540" as="sourcePoint" />
            <mxPoint x="550" y="595" as="targetPoint" />
          </mxGeometry>
        </mxCell>
        <mxCell id="oiaGo1_i9GOHVBW_bYwL-70" value="&amp;lt;&amp;lt;include&amp;gt;&amp;gt;" style="edgeLabel;html=1;align=center;verticalAlign=middle;resizable=0;points=[];rotation=0;fontSize=11;fontFamily=Times New Roman;" parent="oiaGo1_i9GOHVBW_bYwL-69" vertex="1" connectable="0">
          <mxGeometry x="0.115" y="2" relative="1" as="geometry">
            <mxPoint x="7" y="-9" as="offset" />
          </mxGeometry>
        </mxCell>
        <mxCell id="oiaGo1_i9GOHVBW_bYwL-71" value="" style="endArrow=open;dashed=1;html=1;rounded=0;exitX=1;exitY=0.5;exitDx=0;exitDy=0;endFill=0;entryX=0;entryY=0.5;entryDx=0;entryDy=0;fontSize=11;fontFamily=Times New Roman;" parent="1" source="XhIPNTt0wWVxAHa0QcW--27" target="oiaGo1_i9GOHVBW_bYwL-61" edge="1">
          <mxGeometry width="50" height="50" relative="1" as="geometry">
            <mxPoint x="454" y="540" as="sourcePoint" />
            <mxPoint x="550" y="550" as="targetPoint" />
          </mxGeometry>
        </mxCell>
        <mxCell id="oiaGo1_i9GOHVBW_bYwL-72" value="&amp;lt;&amp;lt;include&amp;gt;&amp;gt;" style="edgeLabel;html=1;align=center;verticalAlign=middle;resizable=0;points=[];rotation=-25;fontSize=11;fontFamily=Times New Roman;" parent="oiaGo1_i9GOHVBW_bYwL-71" vertex="1" connectable="0">
          <mxGeometry x="0.115" y="2" relative="1" as="geometry">
            <mxPoint x="-2" y="-14" as="offset" />
          </mxGeometry>
        </mxCell>
        <mxCell id="oiaGo1_i9GOHVBW_bYwL-73" value="&lt;font style=&quot;font-size: 11px;&quot;&gt;по дате добавления&lt;/font&gt;" style="ellipse;whiteSpace=wrap;html=1;fontSize=11;fontFamily=Times New Roman;" parent="1" vertex="1">
          <mxGeometry x="530" y="680" width="99.99" height="40" as="geometry" />
        </mxCell>
        <mxCell id="oiaGo1_i9GOHVBW_bYwL-74" value="&lt;font style=&quot;font-size: 11px;&quot;&gt;по цене&lt;/font&gt;" style="ellipse;whiteSpace=wrap;html=1;fontSize=11;fontFamily=Times New Roman;" parent="1" vertex="1">
          <mxGeometry x="480" y="720" width="99.99" height="40" as="geometry" />
        </mxCell>
        <mxCell id="oiaGo1_i9GOHVBW_bYwL-75" value="" style="endArrow=open;dashed=1;html=1;rounded=0;endFill=0;entryX=0;entryY=0.5;entryDx=0;entryDy=0;exitX=1;exitY=0.5;exitDx=0;exitDy=0;fontSize=11;fontFamily=Times New Roman;" parent="1" source="oiaGo1_i9GOHVBW_bYwL-9" target="oiaGo1_i9GOHVBW_bYwL-73" edge="1">
          <mxGeometry width="50" height="50" relative="1" as="geometry">
            <mxPoint x="460" y="600" as="sourcePoint" />
            <mxPoint x="570" y="650" as="targetPoint" />
          </mxGeometry>
        </mxCell>
        <mxCell id="oiaGo1_i9GOHVBW_bYwL-76" value="&amp;lt;&amp;lt;include&amp;gt;&amp;gt;" style="edgeLabel;html=1;align=center;verticalAlign=middle;resizable=0;points=[];rotation=26;fontSize=11;fontFamily=Times New Roman;" parent="oiaGo1_i9GOHVBW_bYwL-75" vertex="1" connectable="0">
          <mxGeometry x="0.115" y="2" relative="1" as="geometry">
            <mxPoint x="-3" y="-11" as="offset" />
          </mxGeometry>
        </mxCell>
        <mxCell id="oiaGo1_i9GOHVBW_bYwL-77" value="" style="endArrow=open;dashed=1;html=1;rounded=0;endFill=0;entryX=0;entryY=0;entryDx=0;entryDy=0;exitX=1;exitY=1;exitDx=0;exitDy=0;fontSize=11;fontFamily=Times New Roman;" parent="1" source="oiaGo1_i9GOHVBW_bYwL-9" target="oiaGo1_i9GOHVBW_bYwL-74" edge="1">
          <mxGeometry width="50" height="50" relative="1" as="geometry">
            <mxPoint x="454" y="670" as="sourcePoint" />
            <mxPoint x="540" y="710" as="targetPoint" />
          </mxGeometry>
        </mxCell>
        <mxCell id="oiaGo1_i9GOHVBW_bYwL-78" value="&amp;lt;&amp;lt;include&amp;gt;&amp;gt;" style="edgeLabel;html=1;align=center;verticalAlign=middle;resizable=0;points=[];rotation=38;fontSize=11;fontFamily=Times New Roman;" parent="oiaGo1_i9GOHVBW_bYwL-77" vertex="1" connectable="0">
          <mxGeometry x="0.115" y="2" relative="1" as="geometry">
            <mxPoint x="7" y="-7" as="offset" />
          </mxGeometry>
        </mxCell>
        <mxCell id="Hwf_M3yVMJYYyB9vVYHH-1" value="&lt;font style=&quot;font-size: 11px;&quot;&gt;по названию&lt;/font&gt;" style="ellipse;whiteSpace=wrap;html=1;fontSize=11;fontFamily=Times New Roman;" parent="1" vertex="1">
          <mxGeometry x="410" y="750" width="99.99" height="40" as="geometry" />
        </mxCell>
        <mxCell id="Hwf_M3yVMJYYyB9vVYHH-2" value="" style="endArrow=open;dashed=1;html=1;rounded=0;endFill=0;entryX=0.5;entryY=0;entryDx=0;entryDy=0;exitX=0.5;exitY=1;exitDx=0;exitDy=0;fontSize=11;fontFamily=Times New Roman;" parent="1" source="oiaGo1_i9GOHVBW_bYwL-9" target="Hwf_M3yVMJYYyB9vVYHH-1" edge="1">
          <mxGeometry width="50" height="50" relative="1" as="geometry">
            <mxPoint x="439" y="684" as="sourcePoint" />
            <mxPoint x="505" y="736" as="targetPoint" />
          </mxGeometry>
        </mxCell>
        <mxCell id="Hwf_M3yVMJYYyB9vVYHH-3" value="&amp;lt;&amp;lt;include&amp;gt;&amp;gt;" style="edgeLabel;html=1;align=center;verticalAlign=middle;resizable=0;points=[];rotation=45;fontSize=11;fontFamily=Times New Roman;" parent="Hwf_M3yVMJYYyB9vVYHH-2" vertex="1" connectable="0">
          <mxGeometry x="0.115" y="2" relative="1" as="geometry">
            <mxPoint x="8" y="-7" as="offset" />
          </mxGeometry>
        </mxCell>
        <mxCell id="Hwf_M3yVMJYYyB9vVYHH-10" value="&lt;font style=&quot;font-size: 11px;&quot;&gt;доступно после авторизации&lt;/font&gt;" style="shape=note;whiteSpace=wrap;html=1;backgroundOutline=1;darkOpacity=0.05;size=28;fontSize=11;fontFamily=Times New Roman;" parent="1" vertex="1">
          <mxGeometry x="164.04" y="242.5" width="75.96" height="77.5" as="geometry" />
        </mxCell>
      </root>
    </mxGraphModel>
  </diagram>
</mxfile>
